# xmcd
#
# Track frame offsets:
#	180
#	14270
#	28789
#	41749
#	61176
#	72980
#	86510
#	99750
#	113613
#	126941
#	140161
#	152864
#	167115
#	179154
#	193693
#	207170
#	218161
#	230276
#
# Disc length: 3254 seconds
#
# Revision: 0
# Processed by: cddbd v1.5.2PL0 Copyright (c) Steve Scherf et al.
# Submitted via: audiograbber 1.81.03
#
DISCID=000cb412
DTITLE=Various Artist - Blues Festival CD 2
DYEAR=2005
DGENRE=Blues
TTITLE0=Road Trouble
TTITLE1=Highway 49
TTITLE2=Want to Hug You
TTITLE3=John Hardy
TTITLE4=Deep Sea River
TTITLE5=Tease Me Baby
TTITLE6=I Want King Jesus
TTITLE7=Bleading Hearted Blues
TTITLE8=Silicosis Is Killin' Me
TTITLE9=Dying Gambler's Blues
TTITLE10=Got the Blues (Can't Be Satisfied)
TTITLE11=Chicago Blues
TTITLE12=Mississippi River Blues
TTITLE13=Baby Please don't Go
TTITLE14=Frigidair Blues
TTITLE15=Mad Blues
TTITLE16=15 C A Day
TTITLE17=Oh Daddy Blues
EXTD=
EXTT0=
EXTT1=
EXTT2=
EXTT3=
EXTT4=
EXTT5=
EXTT6=
EXTT7=
EXTT8=
EXTT9=
EXTT10=
EXTT11=
EXTT12=
EXTT13=
EXTT14=
EXTT15=
EXTT16=
EXTT17=
PLAYORDER=
